PathFileType	4	(X/Y/Z)	C:/Users/beibeiliu/ov580/test_trc/User1\sequence.26_training_dense_right.trc
DataRate	CameraRate	NumFrames	NumMarkers	Units	OrigDataRate	OrigDataStartFrame	OrigNumFrames
120	120	24	19	mm	120	166	330
Frame#	Time	ThumbCMC			ThumbMCP			ThumbIP			ThumbTip			IndexMCP			IndexPIP			IndexTip			MiddleMCP			MiddlePIP			MiddleTip			RingMCP			RingPIP			RingTip			PinkyMCP			PinkyPIP			PinkyTip			BackHand1			BackHand2			BackHand3	
		X0	Y0	Z0	X1	Y1	Z1	X2	Y2	Z2	X3	Y3	Z3	X4	Y4	Z4	X5	Y5	Z5	X6	Y6	Z6	X7	Y7	Z7	X8	Y8	Z8	X9	Y9	Z9	X10	Y10	Z10	X11	Y11	Z11	X12	Y12	Z12	X13	Y13	Z13	X14	Y14	Z14	X15	Y15	Z15	X16	Y16	Z16	X17	Y17	Z17	X18	Y18	Z18	
165	1.375	172.844	4.69796	50.6294	140.529	34.9406	41.9896	110.156	41.897	28.3599	85.5571	36.6961	28.2066	134.767	-2.67496	-24.2115	114.645	1.3571	-46.4162	97.0575	6.59737	-60.6113	110.521	-20.8812	-20.705	90.2541	-10.3945	-44.5104	69.6175	-1.82972	-63.115	86.4202	-10.6611	5.75744	81.3034	18.3222	18.0308	102.677	14.9302	46.9589	84.4577	-13.1132	31.8985	86.3639	8.7673	44.8676	116.244	14.174	63.3056	134.82	-49.6195	33.4353	150.194	-59.7537	59.7271	168.147	-33.0056	32.99	
166	1.38333	171.487	5.60915	45.6163	140.779	32.2823	37.7587	115.832	40.6933	27.992	90.2864	36.2938	24.0804	135.189	-7.48216	-25.4078	117.481	-2.76724	-47.7418	101.166	2.29312	-64.8736	116.087	-20.6519	-27.8112	98.9719	-11.622	-48.9959	76.9535	-1.7196	-70.4547	91.4551	-12.5101	1.62998	82.1817	15.709	19.2122	104.589	14.187	43.0191	88.7765	-19.6607	28.0384	87.0559	7.25311	43.6365	116.352	11.9914	54.9738	135.275	-47.6263	29.6094	151.947	-58.2446	58.1297	171.401	-34.5117	31.3099	
167	1.39167	176.205	7.03815	46.0818	144.875	31.4296	35.2205	115.339	37.5527	18.1429	92.0149	33.7492	18.2381	143.963	-8.04245	-31.0829	128.19	-5.65326	-49.2994	105.306	-3.12655	-70.0078	123.118	-23.1765	-30.0979	105.641	-16.4048	-49.6567	83.0463	-8.99933	-73.7687	95.5717	-14.6918	-1.75918	87.7057	16.5283	13.9121	106.97	11.5524	39.9516	88.7595	-20.9243	25.8077	90.8487	5.72032	36.5302	117.558	9.77305	54.3025	136.886	-49.6811	28.9598	154.816	-60.7769	59.5	173.019	-37.3487	30.8565	
168	1.4	179.332	6.65498	46.8686	146.223	27.7716	31.59	122.114	32.6614	17.4751	96.6542	29.9554	10.9435	149.586	-10.6786	-29.9321	130.122	-9.5556	-53.1339	114.425	-7.34972	-71.6446	128.659	-26.6423	-30.4983	112.877	-19.9015	-52.5233	91.6617	-13.5256	-74.6775	97.9876	-17.0586	-4.91237	90.1497	14.6119	12.1686	113.805	10.2599	36.2996	88.6925	-19.422	22.2334	95.5379	5.61732	32.7166	119.534	10.7378	51.7413	140.46	-53.2727	29.1081	157.091	-59.9361	55.8658	175.365	-38.3153	34.0718	
169	1.40833	180.107	4.19225	45.4265	149.806	29.6071	27.8124	125.871	32.9283	12.7023	96.1166	31.7491	3.24447	148.533	-15.0508	-34.8405	138.162	-11.5903	-53.56	122.887	-9.69632	-73.8003	132.841	-28.4687	-33.3086	117.289	-21.1296	-59.3383	98.9239	-15.8461	-81.3207	103.89	-17.2918	-8.71925	94.6534	13.7057	6.45256	116.646	9.16798	32.6831	91.831	-20.125	17.5897	93.4803	3.60313	28.3308	124.642	7.33411	47.5194	141.253	-54.9046	26.1174	160.624	-57.9925	59.8915	177.522	-37.8011	33.9498	
170	1.41667	179.142	2.45424	41.443	151.223	29.9205	25.4793	125.306	32.3651	5.66966	102.232	27.041	1.77337	155.211	-16.68	-33.0001	141.817	-14.7864	-53.79	123.79	-13.2747	-79.8225	133.248	-31.7952	-34.2743	120.775	-23.0456	-61.934	101.787	-18.7718	-84.4609	108.81	-18.1208	-12.3522	96.2315	9.41191	-1.01295	115.432	7.80028	30.6768	96.6227	-23.0369	13.7954	99.4232	4.38474	26.6582	124.749	4.36742	48.7836	142.51	-53.7477	25.8781	160.925	-59.6469	57.9231	178.511	-39.3321	34.7381	
171	1.425	181.738	4.3929	40.3228	153.077	25.2353	25.3496	127.389	26.5949	5.43259	103.221	24.7958	-2.01764	157.932	-18.0353	-35.8939	143.857	-16.8517	-57.3134	128.021	-14.4697	-79.6267	135.829	-32.6305	-38.27	121.342	-27.6665	-61.5108	106.042	-23.0027	-86.0838	108.539	-23.1298	-12.1919	99.7959	9.64093	-1.48814	116.402	6.14643	29.8665	97.1446	-23.6861	10.8417	97.6771	1.38388	22.0246	126.595	3.07214	45.2778	147.244	-54.2528	26.6042	159.784	-60.4922	56.8633	184.271	-38.9859	32.9176	
172	1.43333	181.005	1.59383	40.7458	153.239	24.9397	23.8659	128.442	30.4241	3.19898	103.271	23.6964	-5.58884	161.959	-18.3642	-35.1081	148.068	-15.6249	-60.3149	130.756	-15.8431	-82.4879	140.887	-32.2347	-38.4942	127.385	-25.9505	-64.4005	108.909	-23.5505	-84.8934	110.317	-21.5363	-15.2112	97.7658	5.68447	-4.86823	117.603	9.18923	24.3616	97.6891	-29.854	12.598	97.9456	1.27377	23.4255	126.666	1.26423	41.3226	147.208	-55.4377	25.3433	161.719	-60.2961	56.436	181.764	-42.257	33.7172	
173	1.44167	182.198	-0.579628	42.2917	154.723	22.9486	24.0726	131.283	30.054	2.76499	103.919	26.0303	-7.04185	161.937	-19.1381	-38.5434	147.904	-18.9615	-58.3867	129.514	-19.0208	-79.8377	138.965	-35.1923	-37.874	128.716	-28.1309	-62.5096	110.203	-23.4909	-87.1137	112.184	-23.9522	-15.0211	101.56	6.82817	-6.52808	118.017	8.24253	25.1349	99.155	-29.7425	11.6636	100.236	-0.222252	18.4464	126.909	4.77114	40.2333	148.384	-55.2309	27.7998	162.475	-63.4636	58.7532	185.594	-40.227	31.3988	
174	1.45	184.14	-0.149216	42.7617	154.218	22.8073	21.0252	133.373	28.9543	6.07936	105.343	29.1805	-6.40551	161.58	-21.0227	-38.3992	149.131	-18.7538	-59.242	130.492	-19.9748	-82.1015	139.057	-37.2584	-35.8594	127.969	-30.3171	-59.055	114.364	-24.4933	-87.3747	112.066	-25.643	-15.6987	100.723	7.90925	-4.33839	115.463	8.38696	25.4514	100.412	-27.9349	9.97758	100.259	-0.302033	18.9654	127.554	2.59781	39.537	148.621	-58.5136	26.0071	159.415	-64.1275	60.2723	183.497	-42.3893	33.9221	
175	1.45833	183.113	-0.451677	41.2487	154.048	23.5022	21.4138	132.253	30.7059	3.28651	108.59	27.5585	-3.51996	161.207	-22.4551	-35.7196	148.578	-21.0488	-59.1803	133.042	-19.2571	-83.2965	141.75	-36.6285	-36.6567	128.093	-31.225	-64.9176	111.121	-28.648	-84.0891	110.853	-25.4514	-16.8298	100.938	5.90798	-8.34363	113.247	10.6191	18.9646	98.451	-25.8721	9.1367	103.083	0.193202	18.6353	124.785	5.46573	40.7724	146.563	-60.3726	29.1296	161.253	-61.3323	60.4858	182.597	-45.0383	32.0764	
176	1.46667	182.996	-1.07626	42.272	155.414	23.3528	22.1765	132.118	31.5432	2.78887	108.112	26.5913	-4.3147	159.395	-24.138	-36.6786	150.557	-20.9528	-60.1458	136.017	-20.0869	-80.2191	139.614	-38.5305	-38.7005	128.652	-32.7952	-63.3993	111.22	-29.749	-86.0693	113.836	-25.3815	-19.774	101.138	2.25665	-14.8183	111.867	11.8248	19.5441	100.264	-28.3145	8.87105	97.9166	-1.38468	19.6677	122.351	4.86755	40.19	145.287	-58.1019	25.146	161.195	-63.3166	60.9097	181.732	-42.3698	33.0671	
177	1.475	184.179	1.21346	43.4469	155.622	26.9341	24.2456	131.821	28.3816	4.06879	106.68	34.2506	-5.23206	163.416	-21.7791	-38.0962	146.979	-22.5618	-60.6085	134.485	-21.7291	-80.0746	141.014	-39.4877	-34.4648	130.221	-31.9902	-64.5169	112.219	-29.428	-89.6807	110.603	-29.7977	-16.5442	96.93	1.08271	-14.0509	108.536	14.3903	15.824	98.8646	-30.8664	11.5788	99.9936	-2.10764	15.2646	126.711	3.44791	36.0476	148.942	-58.6382	29.5207	160.545	-64.2491	61.6835	184.693	-42.9459	34.4888	
178	1.48333	183.483	-0.911269	44.2289	154.17	26.0585	22.3064	132.953	35.2999	4.96065	107.589	35.6843	-5.26667	164.323	-21.7209	-34.0994	150.018	-22.7983	-57.7263	135.504	-22.6106	-81.1662	142.213	-38.2953	-34.7712	131.643	-33.5472	-60.6669	112.598	-29.0266	-89.8067	112.586	-26.7183	-18.9255	95.5991	0.0988407	-13.5772	105.589	14.3834	14.6725	102.3	-31.0605	9.51045	100.162	-1.84494	14.7129	122.619	7.43216	35.8528	147.787	-56.5126	28.0309	159.297	-64.3341	59.5201	180.567	-42.7777	34.1656	
179	1.49167	183.541	0.259882	41.0118	155.145	24.7088	25.4769	134.323	32.169	10.2843	109.072	33.9141	-1.62236	159.991	-24.2056	-37.1764	151.905	-20.4282	-59.3761	134.577	-23.6841	-76.1327	143.089	-39.6574	-33.9747	129.292	-36.172	-58.4638	113.595	-31.4023	-85.1543	110.457	-29.6846	-16.8578	99.0524	3.0392	-14.9392	108.567	15.533	15.4867	100.9	-27.1324	8.30072	100.038	-2.00357	14.0962	124.111	7.27038	36.5608	146.249	-57.9561	29.7273	158.907	-63.3922	62.2876	182.807	-43.0786	34.5796	
180	1.5	182.555	0.0955884	43.5503	155.582	27.6051	28.5898	131.434	32.5668	8.79366	105.174	36.7349	-1.16338	161.955	-22.8996	-31.5489	148.709	-22.8607	-58.2464	137.814	-23.3094	-79.6289	142.198	-38.3229	-35.4707	131.619	-34.0539	-60.5337	114.438	-32.2993	-86.1169	115.988	-28.2312	-17.4629	97.1387	3.51719	-13.1992	106.574	15.681	12.8026	101.998	-31.5069	10.1314	98.5672	-0.917999	14.9632	121.372	7.43942	36.8121	145.164	-58.7708	26.7199	161.35	-64.1138	63.5574	183.68	-42.9984	35.578	
181	1.50833	181.581	3.4122	41.9386	152.357	28.7076	25.8505	129.951	34.0182	11.0606	103.185	30.788	1.07498	164.006	-20.0421	-33.6173	150.197	-20.8132	-59.155	137.217	-22.2543	-78.2765	142.48	-38.5578	-32.76	131.104	-34.7448	-60.2509	118.54	-31.0761	-88.2566	112.839	-31.7625	-16.003	96.0347	0.2684	-14.681	108.878	16.0121	10.527	98.7195	-29.4114	9.75643	99.2857	-1.07554	15.1126	119.95	10.2899	32.9879	151.599	-54.7808	29.1961	163.543	-60.5944	59.8413	182.358	-39.0959	36.3558	
182	1.51667	183.104	6.73899	42.1229	152.146	29.1401	27.9491	124.555	33.4879	5.64331	98.2706	26.8133	-0.681978	163.843	-19.0874	-37.6589	150.623	-21.0077	-58.5756	136.474	-22.5665	-77.3948	145.05	-36.2981	-33.2006	131.432	-35.1993	-58.1412	120.174	-30.6969	-89.9644	117.58	-30.8178	-17.9035	96.3634	0.210308	-17.464	106.62	12.0297	12.8691	99.0028	-28.6316	7.50847	99.8156	-0.880111	13.6555	120.215	10.7674	31.2392	150.632	-54.9876	24.9735	161.605	-59.9393	62.1002	185.99	-38.3178	33.7658	
183	1.525	181.485	4.53491	42.1318	149.804	29.1853	24.9692	125.415	34.0837	7.48818	97.2358	26.1923	-0.153417	163.484	-19.3925	-32.9126	153.744	-17.3002	-58.8728	141.682	-19.5096	-79.4714	142.614	-36.8618	-34.0213	131.718	-34.2319	-62.445	117.052	-30.7709	-89.1436	113.713	-28.8392	-21.7458	98.5383	2.16568	-17.699	109.764	12.7624	10.1766	99.3791	-30.4251	10.4695	97.1978	0.0248503	14.5123	124.635	9.05709	33.0879	150.348	-54.5435	25.8492	162.879	-58.8353	61.4542	185.545	-36.3106	31.6118	
184	1.53333	182.429	7.72135	38.7812	149.387	27.9965	22.7118	123.277	31.7423	6.60121	98.8334	22.3877	1.46693	164.696	-15.6293	-37.3355	152.352	-16.9188	-61.4439	139.378	-19.7997	-79.7572	143.185	-35.5482	-37.0421	131.806	-33.2638	-59.773	118.445	-29.9637	-91.1162	116.853	-28.625	-19.7115	100.718	2.10599	-20.4333	109.916	11.2066	11.3933	102.965	-28.6511	8.69499	95.0916	0.973617	15.9909	119.741	10.0226	35.5072	151.704	-50.9335	26.2765	166.042	-56.0809	56.5941	184.736	-34.5157	32.2713	
185	1.54167	182.543	7.1291	41.7329	150.985	32.9435	25.3557	124.736	30.0788	9.36515	97.6018	22.2577	2.53913	163.003	-15.2086	-38.6962	153.483	-15.7039	-58.9048	136.392	-19.3217	-83.6818	145.535	-32.4713	-40.0768	130.691	-31.2291	-63.9766	118.477	-27.6147	-87.8947	113.694	-26.5639	-22.3168	97.3641	-1.7469	-20.7852	111.002	13.6381	8.72323	103.516	-28.2042	8.40544	98.3815	2.57622	14.9154	119.781	10.1483	34.564	151.004	-50.2677	23.5753	164.926	-55.6352	60.9456	186.743	-33.9318	33.089	
186	1.55	183.474	8.09343	42.4192	150.729	33.4345	23.8154	123.501	30.079	7.14175	97.1256	22.8812	2.43369	164.695	-13.1633	-36.0794	152.248	-12.8274	-61.4955	136.849	-16.0877	-82.6224	145.872	-31.4759	-36.896	134.915	-29.2208	-61.7533	118.045	-26.3375	-91.6274	112.884	-27.4264	-22.0354	97.7065	0.0388269	-20.1292	110.377	14.1034	8.24409	97.4687	-26.0278	8.93414	100.097	2.66446	13.2431	122.714	12.0075	31.4093	151.734	-49.508	25.7198	164.335	-57.1795	58.2243	185.222	-33.8974	27.3065	
187	1.55833	183.961	8.19495	42.8425	150.729	31.1326	23.3027	124.24	33.8647	9.58093	96.252	24.4957	4.0119	161.999	-14.6469	-34.8824	152.431	-12.3547	-63.8613	136.292	-16.0507	-81.2864	143.765	-30.6679	-36.8767	132.751	-26.2252	-66.8839	115.842	-24.2686	-91.6239	114.224	-25.2241	-23.4444	99.8197	2.28191	-22.951	111.45	14.7467	9.99615	96.5685	-23.0362	8.46659	97.301	5.87999	17.0076	124.452	13.1323	35.3203	149.052	-52.0988	26.3468	163.759	-56.0541	54.83	184.104	-32.9676	27.5934	
188	1.56667	183.337	7.49812	42.5836	151.727	36.0789	24.5208	122.984	31.9392	7.52509	95.8117	22.9753	5.0793	163.297	-13.14	-38.0369	149.429	-12.471	-62.2196	135.136	-14.9395	-81.0533	143.939	-30.2744	-40.1959	129.688	-28.9502	-61.5788	113.919	-23.1369	-92.3064	116.056	-24.4104	-22.644	97.1674	2.80618	-22.1574	108.97	14.6252	9.96126	101.419	-23.0032	7.23732	99.9675	6.99443	14.0345	126.703	13.5901	33.2374	148.77	-49.7327	27.7801	164.214	-55.3581	53.1636	182.877	-36.2323	31.9396	
